<svg width="134" height="97" viewBox="0 0 134 97" fill="none" xmlns="http://www.w3.org/2000/svg">
<rect width="134" height="97" fill="#F5F5F5"/>
<g clip-path="url(#clip0_0_1)">
<rect width="134" height="97" fill="#894545"/>
<g style="mix-blend-mode:color-dodge">
<path d="M134 0H0V97H134V0Z" fill="#F0CBCB"/>
</g>
<path d="M68.1167 0L80.652 36.8271H121.218L88.3994 59.5875L100.935 96.4147L68.1167 73.6542L35.2986 96.4147L47.834 59.5875L15.016 36.8271H55.5813L68.1167 0Z" fill="#9FB498"/>
<path d="M0.402 28.6523V28.1407H9.9428V28.6523H7.3164V63.4444H9.9428V63.956H0.402V63.4444H2.8676V28.6523H0.402ZM46.5562 44.2576C46.5562 42.1769 46.2703 40.7101 45.6986 39.8574C45.1268 39.0047 44.037 38.5783 42.429 38.5783C40.285 38.5783 38.3732 39.431 36.6938 41.1365C35.05 42.842 34.2282 44.377 34.2282 45.7414V63.956H30.4762V44.2576C30.4762 42.1769 30.1903 40.7101 29.6186 39.8574C29.0468 39.0047 27.8319 38.5783 25.9738 38.5783C24.1156 38.5783 22.3468 39.3969 20.6674 41.0342C19.0236 42.6715 18.1303 44.1894 17.9874 45.5879V63.956H14.2354V38.3736H17.9874V44.1552C18.5591 42.6885 19.6132 41.3241 21.1498 40.0621C22.6863 38.8 24.4015 38.169 26.2954 38.169C28.1892 38.169 29.69 38.3395 30.7978 38.6806C31.9412 38.9876 32.7452 39.4822 33.2098 40.1644C33.6743 40.8466 33.9602 41.4435 34.0674 41.9552C34.1746 42.4668 34.2282 43.1831 34.2282 44.1041C34.7999 42.6374 35.8362 41.29 37.337 40.0621C38.8378 38.8 40.4458 38.169 42.161 38.169C43.8762 38.169 45.2519 38.3054 46.2882 38.5783C47.3244 38.8512 48.0927 39.1582 48.593 39.4992C49.129 39.8403 49.522 40.3349 49.7722 40.983C50.058 41.6311 50.2188 42.1598 50.2546 42.5691C50.2903 42.9785 50.3082 43.5583 50.3082 44.3087V60.3233C50.3082 61.3125 50.5047 62.08 50.8978 62.6258C51.3266 63.1374 51.7554 63.4103 52.1842 63.4444L52.7738 63.5467H54.4354V63.956H51.1658C49.7007 63.956 48.5751 63.6491 47.789 63.0351C47.0386 62.4211 46.6455 61.8071 46.6098 61.1931L46.5562 60.3233V44.2576ZM78.1949 63.956C75.7651 63.956 74.1035 63.5126 73.2101 62.6258C72.3883 61.8753 71.9773 61.2273 71.9773 60.6815V59.607C70.2264 62.6428 67.4213 64.1607 63.5621 64.1607C59.0597 64.1607 56.5048 62.2164 55.8973 58.3279C55.8259 57.9186 55.7901 57.5093 55.7901 57.1C55.7901 56.6565 55.8616 56.179 56.0045 55.6673C56.1475 55.1557 56.5584 54.5929 57.2373 53.9789C58.5952 52.7509 61.5789 52.0005 66.1885 51.7276C67.332 51.6253 68.3861 51.5741 69.3509 51.5741C70.3157 51.5741 71.1912 51.6083 71.9773 51.6765V43.1831C71.9058 43.149 71.9058 42.9955 71.9773 42.7226C72.0488 42.4156 71.9773 42.0404 71.7629 41.597C71.5842 41.1195 71.3341 40.659 71.0125 40.2156C70.6909 39.7721 70.1192 39.3969 69.2973 39.0899C68.4753 38.7488 67.4035 38.5783 66.0813 38.5783C64.7592 38.5783 63.2048 38.817 61.4181 39.2946C59.6672 39.738 58.3808 40.1814 57.5589 40.6249L57.3445 40.2667C60.5248 38.8682 63.7587 38.169 67.0461 38.169C70.7267 38.169 73.1565 38.8 74.3357 40.0621C75.2648 41.0512 75.7293 42.0916 75.7293 43.1831V60.3233C75.7293 61.3125 75.9259 62.08 76.3189 62.6258C76.7477 63.1374 77.1765 63.4103 77.6053 63.4444L78.1949 63.5467H79.8565V63.956H78.1949ZM64.4197 63.7514C66.3136 63.7514 68.0109 63.1374 69.5117 61.9094C71.0482 60.6474 71.8701 59.4365 71.9773 58.2767V52.0858C71.0125 52.0176 70.0299 51.9835 69.0293 51.9835C68.0645 51.9835 67.0997 52.0346 66.1349 52.137C63.4192 52.444 61.6504 53.0238 60.8285 53.8766C60.0067 54.7293 59.5957 55.9061 59.5957 57.4069C59.5957 57.6798 59.6136 57.9868 59.6493 58.3279C59.9709 61.9436 61.5611 63.7514 64.4197 63.7514ZM82.5377 52.0858C82.5377 47.6515 83.6633 44.2235 85.9145 41.8017C88.1657 39.3799 91.5425 38.169 96.0449 38.169C99.3681 38.169 102.745 38.7318 106.175 39.8574V64.57C106.14 72.6882 102.423 76.7472 95.0265 76.7472C90.9529 76.7472 87.469 75.4852 84.5746 72.961L84.9497 72.6541C88.0228 75.11 91.3817 76.3379 95.0265 76.3379C99.9577 76.3379 102.423 72.4153 102.423 64.57V59.5047C101.744 60.6985 100.619 61.756 99.0465 62.6769C97.4743 63.5979 95.6161 64.0584 93.4721 64.0584C86.1825 63.8878 82.5377 59.897 82.5377 52.0858ZM93.5257 63.6491C95.9199 63.6491 97.9745 63.0351 99.6897 61.8071C101.405 60.5792 102.316 59.3683 102.423 58.1744V40.1132C99.8505 39.0899 97.6708 38.5783 95.8841 38.5783C92.7039 38.5783 90.3097 39.7721 88.7017 42.1598C87.0937 44.5134 86.2897 47.8221 86.2897 52.0858C86.2897 59.7946 88.7017 63.6491 93.5257 63.6491ZM113.826 51.4718C113.826 55.7014 114.595 58.8054 116.131 60.7838C117.703 62.7622 119.758 63.7514 122.295 63.7514C125.868 63.7514 129.049 63.2397 131.836 62.2164L131.997 62.5746C129.138 63.632 125.904 64.1607 122.295 64.1607C118.722 64.1607 115.81 63.1374 113.558 61.0908C111.307 59.0442 110.181 55.8891 110.181 51.6253C110.181 47.3616 111.361 44.0529 113.719 41.6993C116.077 39.3458 119.079 38.169 122.724 38.169C125.654 38.169 128.12 39.0047 130.121 40.676C132.122 42.3474 133.122 44.8204 133.122 48.0949C133.122 48.2655 133.122 48.436 133.122 48.6066H113.987C113.88 49.5276 113.826 50.4826 113.826 51.4718ZM129.477 48.1973C129.442 44.9227 128.781 42.5009 127.494 40.9319C126.208 39.3628 124.546 38.5783 122.509 38.5783C120.473 38.5783 118.65 39.431 117.042 41.1365C115.47 42.842 114.469 45.1956 114.041 48.1973H129.477Z" fill="black"/>
</g>
<defs>
<clipPath id="clip0_0_1">
<rect width="134" height="97" fill="white"/>
</clipPath>
</defs>
</svg>
